<svg viewBox="0 0 455 115" xmlns="http://www.w3.org/2000/svg" xml:space="preserve" style="fill-rule:evenodd;clip-rule:evenodd;stroke-linejoin:round;stroke-miterlimit:2"><path d="m203.7 43.1-.2 29.6-.5-.1c-2.6-.5-5.3-.8-8.1-.8-5.2 0-10.5.8-15.5 2.6s-9.6 4.5-13.6 8.1c-3.9 3.6-7.2 8.1-9.6 13.3-2.4 5.2-3.7 11.4-3.7 18.3 0 7.4 1.2 13.8 3.8 19.2 2.6 5.4 6 9.8 10.3 13.3 4.2 3.4 9.1 6 14.3 7.7 5.3 1.7 10.7 2.5 16.1 2.5 6.5 0 12.6-.5 18-1.6 5.3-1.1 10.6-2.8 15.6-5l.6-106.7-27.5-.4Zm-.5 89.3-.4.1c-1.9.4-4 .7-6 .6-2.9 0-5.7-.7-8.3-2.1-2.6-1.4-4.7-3.5-6.3-6.3-1.6-2.8-2.3-6.4-2.3-10.7 0-4.4.8-8.1 2.4-10.9 1.5-2.8 3.7-4.9 6.4-6.2 2.7-1.3 5.7-1.9 8.9-1.9 1.9 0 3.7.2 5.5.7l.3.1-.2 36.6Zm111.6-41c-3.7-6.3-8.8-11.2-15.1-14.5-3.1-1.6-6.5-2.9-9.9-3.7-3.5-.8-7.1-1.3-10.9-1.3-7.6 0-14.6 1.6-20.9 4.8-6.3 3.2-11.5 8-15.3 14.3-3.9 6.3-5.8 14.1-5.9 23.2-.1 9.1 1.8 17 5.6 23.3 3.8 6.3 8.9 11.2 15.2 14.5 6.3 3.3 13.3 5.1 20.8 5.1 7.4 0 14.5-1.6 20.8-4.9 6.4-3.3 11.5-8.1 15.3-14.4 3.8-6.3 5.8-14.1 5.8-23.2.1-9.1-1.7-16.9-5.5-23.2m-23.6 33.8c-.7 1.4-1.5 2.7-2.4 3.7-.9 1.1-1.9 1.9-3 2.6-2.2 1.4-4.7 2-7.3 2-2.6 0-5.1-.7-7.3-2.1-2.2-1.4-4-3.5-5.3-6.4-1.3-2.8-2-6.4-2-10.8s.7-8.1 2.1-10.8c1.4-2.8 3.2-4.9 5.4-6.2 2.2-1.4 4.7-2 7.3-2 2.6 0 5.1.7 7.3 2.1 2.2 1.4 4 3.5 5.3 6.3 1.3 2.8 2 6.4 2 10.8s-.7 8-2.1 10.8m110.1-29.1c-2.2-5.2-5.3-9.6-9.2-13-3.9-3.4-8.2-6-12.8-7.7-4.7-1.7-9.5-2.5-14.3-2.5-3.7 0-7.1.3-10.3 1.1l-.6.1.2-30.1-27.7-.2-.6 106.9c5 2.3 10.1 4 15.4 5.1 5.4 1.1 11.3 1.7 17.6 1.8 5.7 0 11.3-.9 16.7-2.7 5.4-1.8 10.4-4.5 14.7-8.1 4.3-3.6 7.8-8.1 10.3-13.4 2.5-5.3 3.8-11.7 3.8-18.8.2-7.1-.9-13.3-3.2-18.5M375 125.6c-.9 1.4-1.8 2.7-3 3.7-1.1 1.1-2.4 2-3.7 2.7-2.7 1.5-5.7 2.2-8.7 2.2-1.8 0-3.6-.3-5.4-.7l-.3-.1.2-36.6.4-.1c1.9-.4 4-.6 6.2-.6 3 0 5.9.7 8.4 2 2.6 1.3 4.7 3.4 6.2 6.1 1.6 2.7 2.3 6.3 2.3 10.5 0 4.4-.9 8.1-2.6 10.9m111.1-29.5c-1.1-2.4-2.3-4.7-3.8-6.8-1.4-2.1-3.1-4-4.9-5.7-3.6-3.4-7.7-6-12.3-7.7-4.5-1.8-9.4-2.7-14.3-2.7-7.2 0-14 1.6-20.1 5-6.1 3.4-11.1 8.2-14.8 14.4-3.7 6.2-5.6 13.7-5.7 22.2 0 6.7 1.2 12.8 3.5 18.1 2.4 5.3 5.7 9.8 9.9 13.5 4.2 3.6 9.2 6.5 14.7 8.4 5.6 1.9 11.7 2.9 18.2 3 4.7 0 9.4-.5 14-1.5 4.4-1 8.7-2.5 12.8-4.5l.1-21.7c-4.1 1.9-8.1 3.3-11.9 4.4-4 1.1-8.1 1.6-12.3 1.6-4.5 0-8.5-.8-11.9-2.3-3.4-1.5-6.2-3.9-8.1-7-.6-.9-1.1-2-1.6-3.2l-.2-.6 50.9.3c.1-1.4.2-2.9.4-4.7.2-1.8.3-3.6.3-5.4.2-6.5-.8-12.2-2.9-17.1m-48.9 10.3.2-.6c.3-1.1.6-2.1 1-2.9 1.4-3 3.2-5.3 5.4-6.8s4.7-2.2 7.3-2.2c2.3 0 4.5.6 6.6 1.8 2.1 1.2 3.8 3 5.3 5.4.8 1.4 1.4 3.1 1.7 5l.1.5-27.6-.2ZM97.3 79l-20.8 50.8 24.6.1 8.5 24.7-74.7-.4L82 43.6l32.3.2L159.9 155l-32.9-.2L97.3 79Z" style="fill:#eb1000;fill-rule:nonzero" transform="translate(-34.9 -43.1)"/></svg>
